<svg xmlns="http://www.w3.org/2000/svg" viewBox="0 0 1000 470" width="1000" height="470" font-family="ui-monospace,SFMono-Regular,'SF Mono',Consolas,'Liberation Mono',Menlo,monospace" role="img" aria-label="Laurence B. David — Threat Hunter / CS Student">
<defs>
<linearGradient id="scan" x1="0" y1="0" x2="0" y2="1"><stop offset="0" stop-color="#ffffff" stop-opacity="0"/><stop offset="0.5" stop-color="#ffffff" stop-opacity="0.05"/><stop offset="1" stop-color="#ffffff" stop-opacity="0"/></linearGradient>
</defs>
<rect x="0" y="0" width="1000" height="470" fill="#0a0a0a"/>
<rect x="0" y="0" width="1000" height="1" fill="#ffffff" opacity="0.015"/><rect x="0" y="4" width="1000" height="1" fill="#ffffff" opacity="0.015"/><rect x="0" y="8" width="1000" height="1" fill="#ffffff" opacity="0.015"/><rect x="0" y="12" width="1000" height="1" fill="#ffffff" opacity="0.015"/><rect x="0" y="16" width="1000" height="1" fill="#ffffff" opacity="0.015"/><rect x="0" y="20" width="1000" height="1" fill="#ffffff" opacity="0.015"/><rect x="0" y="24" width="1000" height="1" fill="#ffffff" opacity="0.015"/><rect x="0" y="28" width="1000" height="1" fill="#ffffff" opacity="0.015"/><rect x="0" y="32" width="1000" height="1" fill="#ffffff" opacity="0.015"/><rect x="0" y="36" width="1000" height="1" fill="#ffffff" opacity="0.015"/><rect x="0" y="40" width="1000" height="1" fill="#ffffff" opacity="0.015"/><rect x="0" y="44" width="1000" height="1" fill="#ffffff" opacity="0.015"/><rect x="0" y="48" width="1000" height="1" fill="#ffffff" opacity="0.015"/><rect x="0" y="52" width="1000" height="1" fill="#ffffff" opacity="0.015"/><rect x="0" y="56" width="1000" height="1" fill="#ffffff" opacity="0.015"/><rect x="0" y="60" width="1000" height="1" fill="#ffffff" opacity="0.015"/><rect x="0" y="64" width="1000" height="1" fill="#ffffff" opacity="0.015"/><rect x="0" y="68" width="1000" height="1" fill="#ffffff" opacity="0.015"/><rect x="0" y="72" width="1000" height="1" fill="#ffffff" opacity="0.015"/><rect x="0" y="76" width="1000" height="1" fill="#ffffff" opacity="0.015"/><rect x="0" y="80" width="1000" height="1" fill="#ffffff" opacity="0.015"/><rect x="0" y="84" width="1000" height="1" fill="#ffffff" opacity="0.015"/><rect x="0" y="88" width="1000" height="1" fill="#ffffff" opacity="0.015"/><rect x="0" y="92" width="1000" height="1" fill="#ffffff" opacity="0.015"/><rect x="0" y="96" width="1000" height="1" fill="#ffffff" opacity="0.015"/><rect x="0" y="100" width="1000" height="1" fill="#ffffff" opacity="0.015"/><rect x="0" y="104" width="1000" height="1" fill="#ffffff" opacity="0.015"/><rect x="0" y="108" width="1000" height="1" fill="#ffffff" opacity="0.015"/><rect x="0" y="112" width="1000" height="1" fill="#ffffff" opacity="0.015"/><rect x="0" y="116" width="1000" height="1" fill="#ffffff" opacity="0.015"/><rect x="0" y="120" width="1000" height="1" fill="#ffffff" opacity="0.015"/><rect x="0" y="124" width="1000" height="1" fill="#ffffff" opacity="0.015"/><rect x="0" y="128" width="1000" height="1" fill="#ffffff" opacity="0.015"/><rect x="0" y="132" width="1000" height="1" fill="#ffffff" opacity="0.015"/><rect x="0" y="136" width="1000" height="1" fill="#ffffff" opacity="0.015"/><rect x="0" y="140" width="1000" height="1" fill="#ffffff" opacity="0.015"/><rect x="0" y="144" width="1000" height="1" fill="#ffffff" opacity="0.015"/><rect x="0" y="148" width="1000" height="1" fill="#ffffff" opacity="0.015"/><rect x="0" y="152" width="1000" height="1" fill="#ffffff" opacity="0.015"/><rect x="0" y="156" width="1000" height="1" fill="#ffffff" opacity="0.015"/><rect x="0" y="160" width="1000" height="1" fill="#ffffff" opacity="0.015"/><rect x="0" y="164" width="1000" height="1" fill="#ffffff" opacity="0.015"/><rect x="0" y="168" width="1000" height="1" fill="#ffffff" opacity="0.015"/><rect x="0" y="172" width="1000" height="1" fill="#ffffff" opacity="0.015"/><rect x="0" y="176" width="1000" height="1" fill="#ffffff" opacity="0.015"/><rect x="0" y="180" width="1000" height="1" fill="#ffffff" opacity="0.015"/><rect x="0" y="184" width="1000" height="1" fill="#ffffff" opacity="0.015"/><rect x="0" y="188" width="1000" height="1" fill="#ffffff" opacity="0.015"/><rect x="0" y="192" width="1000" height="1" fill="#ffffff" opacity="0.015"/><rect x="0" y="196" width="1000" height="1" fill="#ffffff" opacity="0.015"/><rect x="0" y="200" width="1000" height="1" fill="#ffffff" opacity="0.015"/><rect x="0" y="204" width="1000" height="1" fill="#ffffff" opacity="0.015"/><rect x="0" y="208" width="1000" height="1" fill="#ffffff" opacity="0.015"/><rect x="0" y="212" width="1000" height="1" fill="#ffffff" opacity="0.015"/><rect x="0" y="216" width="1000" height="1" fill="#ffffff" opacity="0.015"/><rect x="0" y="220" width="1000" height="1" fill="#ffffff" opacity="0.015"/><rect x="0" y="224" width="1000" height="1" fill="#ffffff" opacity="0.015"/><rect x="0" y="228" width="1000" height="1" fill="#ffffff" opacity="0.015"/><rect x="0" y="232" width="1000" height="1" fill="#ffffff" opacity="0.015"/><rect x="0" y="236" width="1000" height="1" fill="#ffffff" opacity="0.015"/><rect x="0" y="240" width="1000" height="1" fill="#ffffff" opacity="0.015"/><rect x="0" y="244" width="1000" height="1" fill="#ffffff" opacity="0.015"/><rect x="0" y="248" width="1000" height="1" fill="#ffffff" opacity="0.015"/><rect x="0" y="252" width="1000" height="1" fill="#ffffff" opacity="0.015"/><rect x="0" y="256" width="1000" height="1" fill="#ffffff" opacity="0.015"/><rect x="0" y="260" width="1000" height="1" fill="#ffffff" opacity="0.015"/><rect x="0" y="264" width="1000" height="1" fill="#ffffff" opacity="0.015"/><rect x="0" y="268" width="1000" height="1" fill="#ffffff" opacity="0.015"/><rect x="0" y="272" width="1000" height="1" fill="#ffffff" opacity="0.015"/><rect x="0" y="276" width="1000" height="1" fill="#ffffff" opacity="0.015"/><rect x="0" y="280" width="1000" height="1" fill="#ffffff" opacity="0.015"/><rect x="0" y="284" width="1000" height="1" fill="#ffffff" opacity="0.015"/><rect x="0" y="288" width="1000" height="1" fill="#ffffff" opacity="0.015"/><rect x="0" y="292" width="1000" height="1" fill="#ffffff" opacity="0.015"/><rect x="0" y="296" width="1000" height="1" fill="#ffffff" opacity="0.015"/><rect x="0" y="300" width="1000" height="1" fill="#ffffff" opacity="0.015"/><rect x="0" y="304" width="1000" height="1" fill="#ffffff" opacity="0.015"/><rect x="0" y="308" width="1000" height="1" fill="#ffffff" opacity="0.015"/><rect x="0" y="312" width="1000" height="1" fill="#ffffff" opacity="0.015"/><rect x="0" y="316" width="1000" height="1" fill="#ffffff" opacity="0.015"/><rect x="0" y="320" width="1000" height="1" fill="#ffffff" opacity="0.015"/><rect x="0" y="324" width="1000" height="1" fill="#ffffff" opacity="0.015"/><rect x="0" y="328" width="1000" height="1" fill="#ffffff" opacity="0.015"/><rect x="0" y="332" width="1000" height="1" fill="#ffffff" opacity="0.015"/><rect x="0" y="336" width="1000" height="1" fill="#ffffff" opacity="0.015"/><rect x="0" y="340" width="1000" height="1" fill="#ffffff" opacity="0.015"/><rect x="0" y="344" width="1000" height="1" fill="#ffffff" opacity="0.015"/><rect x="0" y="348" width="1000" height="1" fill="#ffffff" opacity="0.015"/><rect x="0" y="352" width="1000" height="1" fill="#ffffff" opacity="0.015"/><rect x="0" y="356" width="1000" height="1" fill="#ffffff" opacity="0.015"/><rect x="0" y="360" width="1000" height="1" fill="#ffffff" opacity="0.015"/><rect x="0" y="364" width="1000" height="1" fill="#ffffff" opacity="0.015"/><rect x="0" y="368" width="1000" height="1" fill="#ffffff" opacity="0.015"/><rect x="0" y="372" width="1000" height="1" fill="#ffffff" opacity="0.015"/><rect x="0" y="376" width="1000" height="1" fill="#ffffff" opacity="0.015"/><rect x="0" y="380" width="1000" height="1" fill="#ffffff" opacity="0.015"/><rect x="0" y="384" width="1000" height="1" fill="#ffffff" opacity="0.015"/><rect x="0" y="388" width="1000" height="1" fill="#ffffff" opacity="0.015"/><rect x="0" y="392" width="1000" height="1" fill="#ffffff" opacity="0.015"/><rect x="0" y="396" width="1000" height="1" fill="#ffffff" opacity="0.015"/><rect x="0" y="400" width="1000" height="1" fill="#ffffff" opacity="0.015"/><rect x="0" y="404" width="1000" height="1" fill="#ffffff" opacity="0.015"/><rect x="0" y="408" width="1000" height="1" fill="#ffffff" opacity="0.015"/><rect x="0" y="412" width="1000" height="1" fill="#ffffff" opacity="0.015"/><rect x="0" y="416" width="1000" height="1" fill="#ffffff" opacity="0.015"/><rect x="0" y="420" width="1000" height="1" fill="#ffffff" opacity="0.015"/><rect x="0" y="424" width="1000" height="1" fill="#ffffff" opacity="0.015"/><rect x="0" y="428" width="1000" height="1" fill="#ffffff" opacity="0.015"/><rect x="0" y="432" width="1000" height="1" fill="#ffffff" opacity="0.015"/><rect x="0" y="436" width="1000" height="1" fill="#ffffff" opacity="0.015"/><rect x="0" y="440" width="1000" height="1" fill="#ffffff" opacity="0.015"/><rect x="0" y="444" width="1000" height="1" fill="#ffffff" opacity="0.015"/><rect x="0" y="448" width="1000" height="1" fill="#ffffff" opacity="0.015"/><rect x="0" y="452" width="1000" height="1" fill="#ffffff" opacity="0.015"/><rect x="0" y="456" width="1000" height="1" fill="#ffffff" opacity="0.015"/><rect x="0" y="460" width="1000" height="1" fill="#ffffff" opacity="0.015"/><rect x="0" y="464" width="1000" height="1" fill="#ffffff" opacity="0.015"/><rect x="0" y="468" width="1000" height="1" fill="#ffffff" opacity="0.015"/>
<line x1="28" y1="44" x2="972" y2="44" stroke="#262626" stroke-width="1"/>
<path d="M28 44 L28 30 L70 30" fill="none" stroke="#f4f4f4" stroke-width="1.5"/>
<text x="40" y="28" font-family="ui-monospace,SFMono-Regular,'SF Mono',Consolas,'Liberation Mono',Menlo,monospace" font-size="13" letter-spacing="1" fill="#7a7a7a">// PROFILE_README.MD</text>
<text x="960" y="28" text-anchor="end" font-family="ui-monospace,SFMono-Regular,'SF Mono',Consolas,'Liberation Mono',Menlo,monospace" font-size="13" letter-spacing="1"><tspan fill="#7a7a7a">STATUS: </tspan><tspan fill="#f4f4f4">OPEN TO WORK<animate attributeName="opacity" values="1;0.55;1" keyTimes="0;0.5;1" dur="2.6s" repeatCount="indefinite"/></tspan><tspan fill="#4a4a4a">   //   </tspan><tspan fill="#7a7a7a">FOCUS: </tspan><tspan fill="#f4f4f4">CYBERSECURITY</tspan></text>
<text x="62" y="212" font-family="ui-monospace,SFMono-Regular,'SF Mono',Consolas,'Liberation Mono',Menlo,monospace" font-size="13" letter-spacing="3" fill="#7a7a7a">LAURENCE B. DAVID</text>
<text x="58" y="300" font-family="'Arial Black','Helvetica Neue',Helvetica,Arial,sans-serif" font-weight="900" font-size="104" letter-spacing="-3" fill="#f4f4f4">LAURENCE</text>
<text x="64" y="340" font-family="ui-monospace,SFMono-Regular,'SF Mono',Consolas,'Liberation Mono',Menlo,monospace" font-size="15" letter-spacing="2" fill="#7a7a7a"><tspan fill="#f4f4f4">&#9656; </tspan>THREAT HUNTER &#183; CS STUDENT</text>
<rect x="372" y="328" width="11" height="16" fill="#f4f4f4"><animate attributeName="opacity" dur="1.1s" repeatCount="indefinite" calcMode="discrete" keyTimes="0;0.5;1" values="1;0;1"/></rect>
<text x="945" y="110" font-family="'Arial Black','Helvetica Neue',Helvetica,Arial,sans-serif" font-weight="700" font-size="30" fill="#7a7a7a" text-anchor="middle">呪<animate attributeName="opacity" values="0.45;0.9;0.45" keyTimes="0;0.5;1" dur="3.8s" begin="0.00s" repeatCount="indefinite"/></text>
<text x="945" y="148" font-family="'Arial Black','Helvetica Neue',Helvetica,Arial,sans-serif" font-weight="700" font-size="30" fill="#7a7a7a" text-anchor="middle">術<animate attributeName="opacity" values="0.45;0.9;0.45" keyTimes="0;0.5;1" dur="3.8s" begin="-0.50s" repeatCount="indefinite"/></text>
<text x="945" y="186" font-family="'Arial Black','Helvetica Neue',Helvetica,Arial,sans-serif" font-weight="700" font-size="30" fill="#7a7a7a" text-anchor="middle">師<animate attributeName="opacity" values="0.45;0.9;0.45" keyTimes="0;0.5;1" dur="3.8s" begin="-1.00s" repeatCount="indefinite"/></text>
<text x="945" y="224" font-family="'Arial Black','Helvetica Neue',Helvetica,Arial,sans-serif" font-weight="700" font-size="30" fill="#7a7a7a" text-anchor="middle">殺<animate attributeName="opacity" values="0.45;0.9;0.45" keyTimes="0;0.5;1" dur="3.8s" begin="-1.50s" repeatCount="indefinite"/></text>
<text x="945" y="262" font-family="'Arial Black','Helvetica Neue',Helvetica,Arial,sans-serif" font-weight="700" font-size="30" fill="#7a7a7a" text-anchor="middle">し<animate attributeName="opacity" values="0.45;0.9;0.45" keyTimes="0;0.5;1" dur="3.8s" begin="-2.00s" repeatCount="indefinite"/></text>
<line x1="900" y1="70" x2="900" y2="300" stroke="#262626" stroke-width="1"/>
<line x1="28" y1="372" x2="972" y2="372" stroke="#262626" stroke-width="1"/>
<text x="500" y="432" text-anchor="middle" font-family="'Arial Black','Helvetica Neue',Helvetica,Arial,sans-serif" font-weight="900" font-size="32" letter-spacing="0.5" fill="#f4f4f4">&#8220;EVEN HEAVEN DEMANDS DEATH.&#8221;</text>
<line x1="28" y1="458" x2="972" y2="458" stroke="#262626" stroke-width="1"/>
<rect x="0" y="0" width="1000" height="80" fill="url(#scan)"><animateTransform attributeName="transform" type="translate" from="0 -90" to="0 480" dur="6.5s" repeatCount="indefinite"/></rect>
<rect x="0" y="0" width="1000" height="1.5" fill="#ffffff" opacity="0.10"><animateTransform attributeName="transform" type="translate" from="0 -10" to="0 560" dur="6.5s" repeatCount="indefinite"/></rect>
</svg>
