<svg xmlns="http://www.w3.org/2000/svg" viewBox="0 0 1000 470" width="1000" height="470" font-family="ui-monospace,SFMono-Regular,'SF Mono',Consolas,'Liberation Mono',Menlo,monospace" role="img" aria-label="Laurence B. David — Threat Hunter / CS Student">
<defs>
<clipPath id="c1" clipPathUnits="userSpaceOnUse"><rect x="0" y="14" width="320" height="22"><animateTransform attributeName="transform" type="scale" calcMode="discrete" dur="9s" repeatCount="indefinite" keyTimes="0;0;0.00278;0.00556;0.00833;0.01111;0.01389;0.01667;0.01944;0.02222;0.025;0.02778;0.03056;0.03333;0.03611;0.03889;0.04167;0.04444;0.04722;0.05;0.92;0.93;1" values="0 1;0 1;0.0556 1;0.1111 1;0.1667 1;0.2222 1;0.2778 1;0.3333 1;0.3889 1;0.4444 1;0.5000 1;0.5556 1;0.6111 1;0.6667 1;0.7222 1;0.7778 1;0.8333 1;0.8889 1;0.9444 1;1.0000 1;1 1;0 1;0 1"/></rect></clipPath>
<clipPath id="c2" clipPathUnits="userSpaceOnUse"><rect x="0" y="14" width="960" height="22"><animateTransform attributeName="transform" type="scale" calcMode="discrete" dur="9s" repeatCount="indefinite" keyTimes="0;0.05;0.05286;0.05571;0.05857;0.06143;0.06429;0.06714;0.07;0.07286;0.07571;0.07857;0.08143;0.08429;0.08714;0.09;0.09286;0.09571;0.09857;0.10143;0.10429;0.10714;0.11;0.11286;0.11571;0.11857;0.12143;0.12429;0.12714;0.13;0.92;0.93;1" values="0 1;0 1;0.0357 1;0.0714 1;0.1071 1;0.1429 1;0.1786 1;0.2143 1;0.2500 1;0.2857 1;0.3214 1;0.3571 1;0.3929 1;0.4286 1;0.4643 1;0.5000 1;0.5357 1;0.5714 1;0.6071 1;0.6429 1;0.6786 1;0.7143 1;0.7500 1;0.7857 1;0.8214 1;0.8571 1;0.8929 1;0.9286 1;0.9643 1;1.0000 1;1 1;0 1;0 1"/></rect></clipPath>
<clipPath id="c3" clipPathUnits="userSpaceOnUse"><rect x="0" y="198" width="360" height="22"><animateTransform attributeName="transform" type="scale" calcMode="discrete" dur="9s" repeatCount="indefinite" keyTimes="0;0.13;0.13235;0.13471;0.13706;0.13941;0.14176;0.14412;0.14647;0.14882;0.15118;0.15353;0.15588;0.15824;0.16059;0.16294;0.16529;0.16765;0.17;0.92;0.93;1" values="0 1;0 1;0.0588 1;0.1176 1;0.1765 1;0.2353 1;0.2941 1;0.3529 1;0.4118 1;0.4706 1;0.5294 1;0.5882 1;0.6471 1;0.7059 1;0.7647 1;0.8235 1;0.8824 1;0.9412 1;1.0000 1;1 1;0 1;0 1"/></rect></clipPath>
<clipPath id="c4" clipPathUnits="userSpaceOnUse"><rect x="0" y="218" width="720" height="100"><animateTransform attributeName="transform" type="scale" calcMode="discrete" dur="9s" repeatCount="indefinite" keyTimes="0;0.17;0.19125;0.2125;0.23375;0.255;0.27625;0.2975;0.31875;0.34;0.92;0.93;1" values="0 1;0 1;0.1250 1;0.2500 1;0.3750 1;0.5000 1;0.6250 1;0.7500 1;0.8750 1;1.0000 1;1 1;0 1;0 1"/></rect></clipPath>
<clipPath id="c5" clipPathUnits="userSpaceOnUse"><rect x="0" y="326" width="470" height="22"><animateTransform attributeName="transform" type="scale" calcMode="discrete" dur="9s" repeatCount="indefinite" keyTimes="0;0.35;0.35308;0.35615;0.35923;0.36231;0.36538;0.36846;0.37154;0.37462;0.37769;0.38077;0.38385;0.38692;0.39;0.39308;0.39615;0.39923;0.40231;0.40538;0.40846;0.41154;0.41462;0.41769;0.42077;0.42385;0.42692;0.43;0.92;0.93;1" values="0 1;0 1;0.0385 1;0.0769 1;0.1154 1;0.1538 1;0.1923 1;0.2308 1;0.2692 1;0.3077 1;0.3462 1;0.3846 1;0.4231 1;0.4615 1;0.5000 1;0.5385 1;0.5769 1;0.6154 1;0.6538 1;0.6923 1;0.7308 1;0.7692 1;0.8077 1;0.8462 1;0.8846 1;0.9231 1;0.9615 1;1.0000 1;1 1;0 1;0 1"/></rect></clipPath>
<clipPath id="c6" clipPathUnits="userSpaceOnUse"><rect x="0" y="400" width="1000" height="44"><animateTransform attributeName="transform" type="scale" calcMode="discrete" dur="9s" repeatCount="indefinite" keyTimes="0;0.5;0.50615;0.51231;0.51846;0.52462;0.53077;0.53692;0.54308;0.54923;0.55538;0.56154;0.56769;0.57385;0.58;0.58615;0.59231;0.59846;0.60462;0.61077;0.61692;0.62308;0.62923;0.63538;0.64154;0.64769;0.65385;0.66;0.92;0.93;1" values="0 1;0 1;0.0385 1;0.0769 1;0.1154 1;0.1538 1;0.1923 1;0.2308 1;0.2692 1;0.3077 1;0.3462 1;0.3846 1;0.4231 1;0.4615 1;0.5000 1;0.5385 1;0.5769 1;0.6154 1;0.6538 1;0.6923 1;0.7308 1;0.7692 1;0.8077 1;0.8462 1;0.8846 1;0.9231 1;0.9615 1;1.0000 1;1 1;0 1;0 1"/></rect></clipPath>
</defs>
<rect x="0" y="0" width="1000" height="470" fill="#0a0a0a"/>
<rect x="0" y="0" width="1000" height="1" fill="#ffffff" opacity="0.015"/><rect x="0" y="4" width="1000" height="1" fill="#ffffff" opacity="0.015"/><rect x="0" y="8" width="1000" height="1" fill="#ffffff" opacity="0.015"/><rect x="0" y="12" width="1000" height="1" fill="#ffffff" opacity="0.015"/><rect x="0" y="16" width="1000" height="1" fill="#ffffff" opacity="0.015"/><rect x="0" y="20" width="1000" height="1" fill="#ffffff" opacity="0.015"/><rect x="0" y="24" width="1000" height="1" fill="#ffffff" opacity="0.015"/><rect x="0" y="28" width="1000" height="1" fill="#ffffff" opacity="0.015"/><rect x="0" y="32" width="1000" height="1" fill="#ffffff" opacity="0.015"/><rect x="0" y="36" width="1000" height="1" fill="#ffffff" opacity="0.015"/><rect x="0" y="40" width="1000" height="1" fill="#ffffff" opacity="0.015"/><rect x="0" y="44" width="1000" height="1" fill="#ffffff" opacity="0.015"/><rect x="0" y="48" width="1000" height="1" fill="#ffffff" opacity="0.015"/><rect x="0" y="52" width="1000" height="1" fill="#ffffff" opacity="0.015"/><rect x="0" y="56" width="1000" height="1" fill="#ffffff" opacity="0.015"/><rect x="0" y="60" width="1000" height="1" fill="#ffffff" opacity="0.015"/><rect x="0" y="64" width="1000" height="1" fill="#ffffff" opacity="0.015"/><rect x="0" y="68" width="1000" height="1" fill="#ffffff" opacity="0.015"/><rect x="0" y="72" width="1000" height="1" fill="#ffffff" opacity="0.015"/><rect x="0" y="76" width="1000" height="1" fill="#ffffff" opacity="0.015"/><rect x="0" y="80" width="1000" height="1" fill="#ffffff" opacity="0.015"/><rect x="0" y="84" width="1000" height="1" fill="#ffffff" opacity="0.015"/><rect x="0" y="88" width="1000" height="1" fill="#ffffff" opacity="0.015"/><rect x="0" y="92" width="1000" height="1" fill="#ffffff" opacity="0.015"/><rect x="0" y="96" width="1000" height="1" fill="#ffffff" opacity="0.015"/><rect x="0" y="100" width="1000" height="1" fill="#ffffff" opacity="0.015"/><rect x="0" y="104" width="1000" height="1" fill="#ffffff" opacity="0.015"/><rect x="0" y="108" width="1000" height="1" fill="#ffffff" opacity="0.015"/><rect x="0" y="112" width="1000" height="1" fill="#ffffff" opacity="0.015"/><rect x="0" y="116" width="1000" height="1" fill="#ffffff" opacity="0.015"/><rect x="0" y="120" width="1000" height="1" fill="#ffffff" opacity="0.015"/><rect x="0" y="124" width="1000" height="1" fill="#ffffff" opacity="0.015"/><rect x="0" y="128" width="1000" height="1" fill="#ffffff" opacity="0.015"/><rect x="0" y="132" width="1000" height="1" fill="#ffffff" opacity="0.015"/><rect x="0" y="136" width="1000" height="1" fill="#ffffff" opacity="0.015"/><rect x="0" y="140" width="1000" height="1" fill="#ffffff" opacity="0.015"/><rect x="0" y="144" width="1000" height="1" fill="#ffffff" opacity="0.015"/><rect x="0" y="148" width="1000" height="1" fill="#ffffff" opacity="0.015"/><rect x="0" y="152" width="1000" height="1" fill="#ffffff" opacity="0.015"/><rect x="0" y="156" width="1000" height="1" fill="#ffffff" opacity="0.015"/><rect x="0" y="160" width="1000" height="1" fill="#ffffff" opacity="0.015"/><rect x="0" y="164" width="1000" height="1" fill="#ffffff" opacity="0.015"/><rect x="0" y="168" width="1000" height="1" fill="#ffffff" opacity="0.015"/><rect x="0" y="172" width="1000" height="1" fill="#ffffff" opacity="0.015"/><rect x="0" y="176" width="1000" height="1" fill="#ffffff" opacity="0.015"/><rect x="0" y="180" width="1000" height="1" fill="#ffffff" opacity="0.015"/><rect x="0" y="184" width="1000" height="1" fill="#ffffff" opacity="0.015"/><rect x="0" y="188" width="1000" height="1" fill="#ffffff" opacity="0.015"/><rect x="0" y="192" width="1000" height="1" fill="#ffffff" opacity="0.015"/><rect x="0" y="196" width="1000" height="1" fill="#ffffff" opacity="0.015"/><rect x="0" y="200" width="1000" height="1" fill="#ffffff" opacity="0.015"/><rect x="0" y="204" width="1000" height="1" fill="#ffffff" opacity="0.015"/><rect x="0" y="208" width="1000" height="1" fill="#ffffff" opacity="0.015"/><rect x="0" y="212" width="1000" height="1" fill="#ffffff" opacity="0.015"/><rect x="0" y="216" width="1000" height="1" fill="#ffffff" opacity="0.015"/><rect x="0" y="220" width="1000" height="1" fill="#ffffff" opacity="0.015"/><rect x="0" y="224" width="1000" height="1" fill="#ffffff" opacity="0.015"/><rect x="0" y="228" width="1000" height="1" fill="#ffffff" opacity="0.015"/><rect x="0" y="232" width="1000" height="1" fill="#ffffff" opacity="0.015"/><rect x="0" y="236" width="1000" height="1" fill="#ffffff" opacity="0.015"/><rect x="0" y="240" width="1000" height="1" fill="#ffffff" opacity="0.015"/><rect x="0" y="244" width="1000" height="1" fill="#ffffff" opacity="0.015"/><rect x="0" y="248" width="1000" height="1" fill="#ffffff" opacity="0.015"/><rect x="0" y="252" width="1000" height="1" fill="#ffffff" opacity="0.015"/><rect x="0" y="256" width="1000" height="1" fill="#ffffff" opacity="0.015"/><rect x="0" y="260" width="1000" height="1" fill="#ffffff" opacity="0.015"/><rect x="0" y="264" width="1000" height="1" fill="#ffffff" opacity="0.015"/><rect x="0" y="268" width="1000" height="1" fill="#ffffff" opacity="0.015"/><rect x="0" y="272" width="1000" height="1" fill="#ffffff" opacity="0.015"/><rect x="0" y="276" width="1000" height="1" fill="#ffffff" opacity="0.015"/><rect x="0" y="280" width="1000" height="1" fill="#ffffff" opacity="0.015"/><rect x="0" y="284" width="1000" height="1" fill="#ffffff" opacity="0.015"/><rect x="0" y="288" width="1000" height="1" fill="#ffffff" opacity="0.015"/><rect x="0" y="292" width="1000" height="1" fill="#ffffff" opacity="0.015"/><rect x="0" y="296" width="1000" height="1" fill="#ffffff" opacity="0.015"/><rect x="0" y="300" width="1000" height="1" fill="#ffffff" opacity="0.015"/><rect x="0" y="304" width="1000" height="1" fill="#ffffff" opacity="0.015"/><rect x="0" y="308" width="1000" height="1" fill="#ffffff" opacity="0.015"/><rect x="0" y="312" width="1000" height="1" fill="#ffffff" opacity="0.015"/><rect x="0" y="316" width="1000" height="1" fill="#ffffff" opacity="0.015"/><rect x="0" y="320" width="1000" height="1" fill="#ffffff" opacity="0.015"/><rect x="0" y="324" width="1000" height="1" fill="#ffffff" opacity="0.015"/><rect x="0" y="328" width="1000" height="1" fill="#ffffff" opacity="0.015"/><rect x="0" y="332" width="1000" height="1" fill="#ffffff" opacity="0.015"/><rect x="0" y="336" width="1000" height="1" fill="#ffffff" opacity="0.015"/><rect x="0" y="340" width="1000" height="1" fill="#ffffff" opacity="0.015"/><rect x="0" y="344" width="1000" height="1" fill="#ffffff" opacity="0.015"/><rect x="0" y="348" width="1000" height="1" fill="#ffffff" opacity="0.015"/><rect x="0" y="352" width="1000" height="1" fill="#ffffff" opacity="0.015"/><rect x="0" y="356" width="1000" height="1" fill="#ffffff" opacity="0.015"/><rect x="0" y="360" width="1000" height="1" fill="#ffffff" opacity="0.015"/><rect x="0" y="364" width="1000" height="1" fill="#ffffff" opacity="0.015"/><rect x="0" y="368" width="1000" height="1" fill="#ffffff" opacity="0.015"/><rect x="0" y="372" width="1000" height="1" fill="#ffffff" opacity="0.015"/><rect x="0" y="376" width="1000" height="1" fill="#ffffff" opacity="0.015"/><rect x="0" y="380" width="1000" height="1" fill="#ffffff" opacity="0.015"/><rect x="0" y="384" width="1000" height="1" fill="#ffffff" opacity="0.015"/><rect x="0" y="388" width="1000" height="1" fill="#ffffff" opacity="0.015"/><rect x="0" y="392" width="1000" height="1" fill="#ffffff" opacity="0.015"/><rect x="0" y="396" width="1000" height="1" fill="#ffffff" opacity="0.015"/><rect x="0" y="400" width="1000" height="1" fill="#ffffff" opacity="0.015"/><rect x="0" y="404" width="1000" height="1" fill="#ffffff" opacity="0.015"/><rect x="0" y="408" width="1000" height="1" fill="#ffffff" opacity="0.015"/><rect x="0" y="412" width="1000" height="1" fill="#ffffff" opacity="0.015"/><rect x="0" y="416" width="1000" height="1" fill="#ffffff" opacity="0.015"/><rect x="0" y="420" width="1000" height="1" fill="#ffffff" opacity="0.015"/><rect x="0" y="424" width="1000" height="1" fill="#ffffff" opacity="0.015"/><rect x="0" y="428" width="1000" height="1" fill="#ffffff" opacity="0.015"/><rect x="0" y="432" width="1000" height="1" fill="#ffffff" opacity="0.015"/><rect x="0" y="436" width="1000" height="1" fill="#ffffff" opacity="0.015"/><rect x="0" y="440" width="1000" height="1" fill="#ffffff" opacity="0.015"/><rect x="0" y="444" width="1000" height="1" fill="#ffffff" opacity="0.015"/><rect x="0" y="448" width="1000" height="1" fill="#ffffff" opacity="0.015"/><rect x="0" y="452" width="1000" height="1" fill="#ffffff" opacity="0.015"/><rect x="0" y="456" width="1000" height="1" fill="#ffffff" opacity="0.015"/><rect x="0" y="460" width="1000" height="1" fill="#ffffff" opacity="0.015"/><rect x="0" y="464" width="1000" height="1" fill="#ffffff" opacity="0.015"/><rect x="0" y="468" width="1000" height="1" fill="#ffffff" opacity="0.015"/>
<line x1="28" y1="44" x2="972" y2="44" stroke="#262626" stroke-width="1"/>
<path d="M28 44 L28 30 L70 30" fill="none" stroke="#f4f4f4" stroke-width="1.5"/>
<g clip-path="url(#c1)"><text x="40" y="28" font-family="ui-monospace,SFMono-Regular,'SF Mono',Consolas,'Liberation Mono',Menlo,monospace" font-size="13" letter-spacing="1" fill="#7a7a7a">// PROFILE_README.MD</text></g>
<g clip-path="url(#c2)"><text x="960" y="28" text-anchor="end" font-family="ui-monospace,SFMono-Regular,'SF Mono',Consolas,'Liberation Mono',Menlo,monospace" font-size="13" letter-spacing="1"><tspan fill="#7a7a7a">STATUS: </tspan><tspan fill="#f4f4f4">OPEN TO WORK</tspan><tspan fill="#4a4a4a">   //   </tspan><tspan fill="#7a7a7a">FOCUS: </tspan><tspan fill="#f4f4f4">CYBERSECURITY</tspan></text></g>
<g clip-path="url(#c3)"><text x="62" y="212" font-family="ui-monospace,SFMono-Regular,'SF Mono',Consolas,'Liberation Mono',Menlo,monospace" font-size="13" letter-spacing="3" fill="#7a7a7a">LAURENCE B. DAVID</text></g>
<g clip-path="url(#c4)"><text x="58" y="300" font-family="'Arial Black','Helvetica Neue',Helvetica,Arial,sans-serif" font-weight="900" font-size="104" letter-spacing="-3" fill="#f4f4f4">LAURENCE</text></g>
<g clip-path="url(#c5)"><text x="64" y="340" font-family="ui-monospace,SFMono-Regular,'SF Mono',Consolas,'Liberation Mono',Menlo,monospace" font-size="15" letter-spacing="2" fill="#7a7a7a"><tspan fill="#f4f4f4">&#9656; </tspan>THREAT HUNTER &#183; CS STUDENT</text></g>
<rect x="372" y="328" width="11" height="16" fill="#f4f4f4"><animate attributeName="opacity" dur="1.1s" repeatCount="indefinite" calcMode="discrete" keyTimes="0;0.5;1" values="1;0;1"/></rect>
<text x="945" y="110" font-family="'Arial Black','Helvetica Neue',Helvetica,Arial,sans-serif" font-weight="700" font-size="30" fill="#7a7a7a" text-anchor="middle">呪<animate attributeName="opacity" calcMode="linear" dur="9s" repeatCount="indefinite" keyTimes="0;0.17;0.22;0.92;0.93;1" values="0;0;1;1;0;0"/></text>
<text x="945" y="148" font-family="'Arial Black','Helvetica Neue',Helvetica,Arial,sans-serif" font-weight="700" font-size="30" fill="#7a7a7a" text-anchor="middle">術<animate attributeName="opacity" calcMode="linear" dur="9s" repeatCount="indefinite" keyTimes="0;0.195;0.245;0.92;0.93;1" values="0;0;1;1;0;0"/></text>
<text x="945" y="186" font-family="'Arial Black','Helvetica Neue',Helvetica,Arial,sans-serif" font-weight="700" font-size="30" fill="#7a7a7a" text-anchor="middle">師<animate attributeName="opacity" calcMode="linear" dur="9s" repeatCount="indefinite" keyTimes="0;0.22000000000000003;0.27;0.92;0.93;1" values="0;0;1;1;0;0"/></text>
<text x="945" y="224" font-family="'Arial Black','Helvetica Neue',Helvetica,Arial,sans-serif" font-weight="700" font-size="30" fill="#7a7a7a" text-anchor="middle">殺<animate attributeName="opacity" calcMode="linear" dur="9s" repeatCount="indefinite" keyTimes="0;0.24500000000000002;0.295;0.92;0.93;1" values="0;0;1;1;0;0"/></text>
<text x="945" y="262" font-family="'Arial Black','Helvetica Neue',Helvetica,Arial,sans-serif" font-weight="700" font-size="30" fill="#7a7a7a" text-anchor="middle">し<animate attributeName="opacity" calcMode="linear" dur="9s" repeatCount="indefinite" keyTimes="0;0.27;0.32;0.92;0.93;1" values="0;0;1;1;0;0"/></text>
<line x1="900" y1="70" x2="900" y2="300" stroke="#262626" stroke-width="1"/>
<line x1="28" y1="372" x2="972" y2="372" stroke="#262626" stroke-width="1"/>
<g clip-path="url(#c6)"><text x="500" y="432" text-anchor="middle" font-family="'Arial Black','Helvetica Neue',Helvetica,Arial,sans-serif" font-weight="900" font-size="32" letter-spacing="0.5" fill="#f4f4f4">&#8220;EVEN HEAVEN DEMANDS DEATH.&#8221;</text></g>
<line x1="28" y1="458" x2="972" y2="458" stroke="#262626" stroke-width="1"/>
</svg>
