<svg xmlns="http://www.w3.org/2000/svg" viewBox="0 0 1000 340" width="1000" height="340" font-family="ui-monospace,SFMono-Regular,'SF Mono',Consolas,'Liberation Mono',Menlo,monospace" role="img" aria-label="Laurence B. David — Threat Hunter / CS Student">
<defs>
<clipPath id="c1" clipPathUnits="userSpaceOnUse"><rect x="0" y="14" width="320" height="22"><animateTransform attributeName="transform" type="scale" calcMode="discrete" dur="12s" repeatCount="indefinite" keyTimes="0;0;0.003;0.006;0.009;0.012;0.015;0.018;0.021;0.024;0.027;0.03;0.033;0.036;0.039;0.042;0.045;0.048;0.051;0.054;0.057;0.06;0.96;0.965;1" values="0 1;0 1;0.0500 1;0.1000 1;0.1500 1;0.2000 1;0.2500 1;0.3000 1;0.3500 1;0.4000 1;0.4500 1;0.5000 1;0.5500 1;0.6000 1;0.6500 1;0.7000 1;0.7500 1;0.8000 1;0.8500 1;0.9000 1;0.9500 1;1.0000 1;1 1;0 1;0 1"/></rect></clipPath>
<clipPath id="c2" clipPathUnits="userSpaceOnUse"><rect x="0" y="14" width="960" height="22"><animateTransform attributeName="transform" type="scale" calcMode="discrete" dur="12s" repeatCount="indefinite" keyTimes="0;0.06;0.06367;0.06733;0.071;0.07467;0.07833;0.082;0.08567;0.08933;0.093;0.09667;0.10033;0.104;0.10767;0.11133;0.115;0.11867;0.12233;0.126;0.12967;0.13333;0.137;0.14067;0.14433;0.148;0.15167;0.15533;0.159;0.16267;0.16633;0.17;0.96;0.965;1" values="0 1;0 1;0.0333 1;0.0667 1;0.1000 1;0.1333 1;0.1667 1;0.2000 1;0.2333 1;0.2667 1;0.3000 1;0.3333 1;0.3667 1;0.4000 1;0.4333 1;0.4667 1;0.5000 1;0.5333 1;0.5667 1;0.6000 1;0.6333 1;0.6667 1;0.7000 1;0.7333 1;0.7667 1;0.8000 1;0.8333 1;0.8667 1;0.9000 1;0.9333 1;0.9667 1;1.0000 1;1 1;0 1;0 1"/></rect></clipPath>
<clipPath id="c3" clipPathUnits="userSpaceOnUse"><rect x="0" y="136" width="360" height="22"><animateTransform attributeName="transform" type="scale" calcMode="discrete" dur="12s" repeatCount="indefinite" keyTimes="0;0.17;0.17235;0.17471;0.17706;0.17941;0.18176;0.18412;0.18647;0.18882;0.19118;0.19353;0.19588;0.19824;0.20059;0.20294;0.20529;0.20765;0.21;0.96;0.965;1" values="0 1;0 1;0.0588 1;0.1176 1;0.1765 1;0.2353 1;0.2941 1;0.3529 1;0.4118 1;0.4706 1;0.5294 1;0.5882 1;0.6471 1;0.7059 1;0.7647 1;0.8235 1;0.8824 1;0.9412 1;1.0000 1;1 1;0 1;0 1"/></rect></clipPath>
<clipPath id="c4" clipPathUnits="userSpaceOnUse"><rect x="0" y="150" width="720" height="100"><animateTransform attributeName="transform" type="scale" calcMode="discrete" dur="12s" repeatCount="indefinite" keyTimes="0;0.22;0.25;0.28;0.31;0.34;0.37;0.4;0.43;0.46;0.96;0.965;1" values="0 1;0 1;0.1250 1;0.2500 1;0.3750 1;0.5000 1;0.6250 1;0.7500 1;0.8750 1;1.0000 1;1 1;0 1;0 1"/></rect></clipPath>
<clipPath id="c5" clipPathUnits="userSpaceOnUse"><rect x="0" y="256" width="470" height="22"><animateTransform attributeName="transform" type="scale" calcMode="discrete" dur="12s" repeatCount="indefinite" keyTimes="0;0.48;0.48462;0.48923;0.49385;0.49846;0.50308;0.50769;0.51231;0.51692;0.52154;0.52615;0.53077;0.53538;0.54;0.54462;0.54923;0.55385;0.55846;0.56308;0.56769;0.57231;0.57692;0.58154;0.58615;0.59077;0.59538;0.6;0.96;0.965;1" values="0 1;0 1;0.0385 1;0.0769 1;0.1154 1;0.1538 1;0.1923 1;0.2308 1;0.2692 1;0.3077 1;0.3462 1;0.3846 1;0.4231 1;0.4615 1;0.5000 1;0.5385 1;0.5769 1;0.6154 1;0.6538 1;0.6923 1;0.7308 1;0.7692 1;0.8077 1;0.8462 1;0.8846 1;0.9231 1;0.9615 1;1.0000 1;1 1;0 1;0 1"/></rect></clipPath>
</defs>
<rect x="0" y="0" width="1000" height="340" fill="#0a0a0a"/>
<rect x="0" y="0" width="1000" height="1" fill="#ffffff" opacity="0.015"/><rect x="0" y="4" width="1000" height="1" fill="#ffffff" opacity="0.015"/><rect x="0" y="8" width="1000" height="1" fill="#ffffff" opacity="0.015"/><rect x="0" y="12" width="1000" height="1" fill="#ffffff" opacity="0.015"/><rect x="0" y="16" width="1000" height="1" fill="#ffffff" opacity="0.015"/><rect x="0" y="20" width="1000" height="1" fill="#ffffff" opacity="0.015"/><rect x="0" y="24" width="1000" height="1" fill="#ffffff" opacity="0.015"/><rect x="0" y="28" width="1000" height="1" fill="#ffffff" opacity="0.015"/><rect x="0" y="32" width="1000" height="1" fill="#ffffff" opacity="0.015"/><rect x="0" y="36" width="1000" height="1" fill="#ffffff" opacity="0.015"/><rect x="0" y="40" width="1000" height="1" fill="#ffffff" opacity="0.015"/><rect x="0" y="44" width="1000" height="1" fill="#ffffff" opacity="0.015"/><rect x="0" y="48" width="1000" height="1" fill="#ffffff" opacity="0.015"/><rect x="0" y="52" width="1000" height="1" fill="#ffffff" opacity="0.015"/><rect x="0" y="56" width="1000" height="1" fill="#ffffff" opacity="0.015"/><rect x="0" y="60" width="1000" height="1" fill="#ffffff" opacity="0.015"/><rect x="0" y="64" width="1000" height="1" fill="#ffffff" opacity="0.015"/><rect x="0" y="68" width="1000" height="1" fill="#ffffff" opacity="0.015"/><rect x="0" y="72" width="1000" height="1" fill="#ffffff" opacity="0.015"/><rect x="0" y="76" width="1000" height="1" fill="#ffffff" opacity="0.015"/><rect x="0" y="80" width="1000" height="1" fill="#ffffff" opacity="0.015"/><rect x="0" y="84" width="1000" height="1" fill="#ffffff" opacity="0.015"/><rect x="0" y="88" width="1000" height="1" fill="#ffffff" opacity="0.015"/><rect x="0" y="92" width="1000" height="1" fill="#ffffff" opacity="0.015"/><rect x="0" y="96" width="1000" height="1" fill="#ffffff" opacity="0.015"/><rect x="0" y="100" width="1000" height="1" fill="#ffffff" opacity="0.015"/><rect x="0" y="104" width="1000" height="1" fill="#ffffff" opacity="0.015"/><rect x="0" y="108" width="1000" height="1" fill="#ffffff" opacity="0.015"/><rect x="0" y="112" width="1000" height="1" fill="#ffffff" opacity="0.015"/><rect x="0" y="116" width="1000" height="1" fill="#ffffff" opacity="0.015"/><rect x="0" y="120" width="1000" height="1" fill="#ffffff" opacity="0.015"/><rect x="0" y="124" width="1000" height="1" fill="#ffffff" opacity="0.015"/><rect x="0" y="128" width="1000" height="1" fill="#ffffff" opacity="0.015"/><rect x="0" y="132" width="1000" height="1" fill="#ffffff" opacity="0.015"/><rect x="0" y="136" width="1000" height="1" fill="#ffffff" opacity="0.015"/><rect x="0" y="140" width="1000" height="1" fill="#ffffff" opacity="0.015"/><rect x="0" y="144" width="1000" height="1" fill="#ffffff" opacity="0.015"/><rect x="0" y="148" width="1000" height="1" fill="#ffffff" opacity="0.015"/><rect x="0" y="152" width="1000" height="1" fill="#ffffff" opacity="0.015"/><rect x="0" y="156" width="1000" height="1" fill="#ffffff" opacity="0.015"/><rect x="0" y="160" width="1000" height="1" fill="#ffffff" opacity="0.015"/><rect x="0" y="164" width="1000" height="1" fill="#ffffff" opacity="0.015"/><rect x="0" y="168" width="1000" height="1" fill="#ffffff" opacity="0.015"/><rect x="0" y="172" width="1000" height="1" fill="#ffffff" opacity="0.015"/><rect x="0" y="176" width="1000" height="1" fill="#ffffff" opacity="0.015"/><rect x="0" y="180" width="1000" height="1" fill="#ffffff" opacity="0.015"/><rect x="0" y="184" width="1000" height="1" fill="#ffffff" opacity="0.015"/><rect x="0" y="188" width="1000" height="1" fill="#ffffff" opacity="0.015"/><rect x="0" y="192" width="1000" height="1" fill="#ffffff" opacity="0.015"/><rect x="0" y="196" width="1000" height="1" fill="#ffffff" opacity="0.015"/><rect x="0" y="200" width="1000" height="1" fill="#ffffff" opacity="0.015"/><rect x="0" y="204" width="1000" height="1" fill="#ffffff" opacity="0.015"/><rect x="0" y="208" width="1000" height="1" fill="#ffffff" opacity="0.015"/><rect x="0" y="212" width="1000" height="1" fill="#ffffff" opacity="0.015"/><rect x="0" y="216" width="1000" height="1" fill="#ffffff" opacity="0.015"/><rect x="0" y="220" width="1000" height="1" fill="#ffffff" opacity="0.015"/><rect x="0" y="224" width="1000" height="1" fill="#ffffff" opacity="0.015"/><rect x="0" y="228" width="1000" height="1" fill="#ffffff" opacity="0.015"/><rect x="0" y="232" width="1000" height="1" fill="#ffffff" opacity="0.015"/><rect x="0" y="236" width="1000" height="1" fill="#ffffff" opacity="0.015"/><rect x="0" y="240" width="1000" height="1" fill="#ffffff" opacity="0.015"/><rect x="0" y="244" width="1000" height="1" fill="#ffffff" opacity="0.015"/><rect x="0" y="248" width="1000" height="1" fill="#ffffff" opacity="0.015"/><rect x="0" y="252" width="1000" height="1" fill="#ffffff" opacity="0.015"/><rect x="0" y="256" width="1000" height="1" fill="#ffffff" opacity="0.015"/><rect x="0" y="260" width="1000" height="1" fill="#ffffff" opacity="0.015"/><rect x="0" y="264" width="1000" height="1" fill="#ffffff" opacity="0.015"/><rect x="0" y="268" width="1000" height="1" fill="#ffffff" opacity="0.015"/><rect x="0" y="272" width="1000" height="1" fill="#ffffff" opacity="0.015"/><rect x="0" y="276" width="1000" height="1" fill="#ffffff" opacity="0.015"/><rect x="0" y="280" width="1000" height="1" fill="#ffffff" opacity="0.015"/><rect x="0" y="284" width="1000" height="1" fill="#ffffff" opacity="0.015"/><rect x="0" y="288" width="1000" height="1" fill="#ffffff" opacity="0.015"/><rect x="0" y="292" width="1000" height="1" fill="#ffffff" opacity="0.015"/><rect x="0" y="296" width="1000" height="1" fill="#ffffff" opacity="0.015"/><rect x="0" y="300" width="1000" height="1" fill="#ffffff" opacity="0.015"/><rect x="0" y="304" width="1000" height="1" fill="#ffffff" opacity="0.015"/><rect x="0" y="308" width="1000" height="1" fill="#ffffff" opacity="0.015"/><rect x="0" y="312" width="1000" height="1" fill="#ffffff" opacity="0.015"/><rect x="0" y="316" width="1000" height="1" fill="#ffffff" opacity="0.015"/><rect x="0" y="320" width="1000" height="1" fill="#ffffff" opacity="0.015"/><rect x="0" y="324" width="1000" height="1" fill="#ffffff" opacity="0.015"/><rect x="0" y="328" width="1000" height="1" fill="#ffffff" opacity="0.015"/><rect x="0" y="332" width="1000" height="1" fill="#ffffff" opacity="0.015"/><rect x="0" y="336" width="1000" height="1" fill="#ffffff" opacity="0.015"/>
<line x1="28" y1="44" x2="972" y2="44" stroke="#262626" stroke-width="1"/>
<line x1="28" y1="300" x2="972" y2="300" stroke="#262626" stroke-width="1"/>
<path d="M28 44 L28 30 L70 30" fill="none" stroke="#f4f4f4" stroke-width="1.5"/>
<line x1="900" y1="60" x2="900" y2="288" stroke="#262626" stroke-width="1"/>
<g clip-path="url(#c1)"><text x="40" y="28" font-family="ui-monospace,SFMono-Regular,'SF Mono',Consolas,'Liberation Mono',Menlo,monospace" font-size="13" letter-spacing="1" fill="#6f6f6f">// PROFILE_README.MD</text></g>
<g clip-path="url(#c2)"><text x="960" y="28" text-anchor="end" font-family="ui-monospace,SFMono-Regular,'SF Mono',Consolas,'Liberation Mono',Menlo,monospace" font-size="13" letter-spacing="1"><tspan fill="#6f6f6f">STATUS: </tspan><tspan fill="#f4f4f4">OPEN TO WORK</tspan><tspan fill="#454545">   //   </tspan><tspan fill="#6f6f6f">FOCUS: </tspan><tspan fill="#f4f4f4">CYBERSECURITY</tspan></text></g>
<g clip-path="url(#c3)"><text x="62" y="150" font-family="ui-monospace,SFMono-Regular,'SF Mono',Consolas,'Liberation Mono',Menlo,monospace" font-size="13" letter-spacing="3" fill="#6f6f6f">LAURENCE B. DAVID</text></g>
<g clip-path="url(#c4)"><text x="58" y="232" font-family="'Arial Black','Helvetica Neue',Helvetica,Arial,sans-serif" font-weight="900" font-size="104" letter-spacing="-3" fill="#f4f4f4">LAURENCE</text></g>
<g clip-path="url(#c5)"><text x="64" y="270" font-family="ui-monospace,SFMono-Regular,'SF Mono',Consolas,'Liberation Mono',Menlo,monospace" font-size="15" letter-spacing="2" fill="#6f6f6f"><tspan fill="#f4f4f4">&#9656; </tspan>THREAT HUNTER &#183; CS STUDENT</text></g>
<rect x="372" y="258" width="11" height="16" fill="#f4f4f4"><animate attributeName="opacity" dur="1.1s" repeatCount="indefinite" calcMode="discrete" keyTimes="0;0.5;1" values="1;0;1"/></rect>
<text x="945" y="96" font-family="'Arial Black','Helvetica Neue',Helvetica,Arial,sans-serif" font-weight="700" font-size="30" fill="#6f6f6f" text-anchor="middle">呪<animate attributeName="opacity" calcMode="linear" dur="12s" repeatCount="indefinite" keyTimes="0;0.24;0.29;0.96;0.965;1" values="0;0;1;1;0;0"/></text>
<text x="945" y="134" font-family="'Arial Black','Helvetica Neue',Helvetica,Arial,sans-serif" font-weight="700" font-size="30" fill="#6f6f6f" text-anchor="middle">術<animate attributeName="opacity" calcMode="linear" dur="12s" repeatCount="indefinite" keyTimes="0;0.265;0.315;0.96;0.965;1" values="0;0;1;1;0;0"/></text>
<text x="945" y="172" font-family="'Arial Black','Helvetica Neue',Helvetica,Arial,sans-serif" font-weight="700" font-size="30" fill="#6f6f6f" text-anchor="middle">師<animate attributeName="opacity" calcMode="linear" dur="12s" repeatCount="indefinite" keyTimes="0;0.29;0.34;0.96;0.965;1" values="0;0;1;1;0;0"/></text>
<text x="945" y="210" font-family="'Arial Black','Helvetica Neue',Helvetica,Arial,sans-serif" font-weight="700" font-size="30" fill="#6f6f6f" text-anchor="middle">殺<animate attributeName="opacity" calcMode="linear" dur="12s" repeatCount="indefinite" keyTimes="0;0.315;0.365;0.96;0.965;1" values="0;0;1;1;0;0"/></text>
<text x="945" y="248" font-family="'Arial Black','Helvetica Neue',Helvetica,Arial,sans-serif" font-weight="700" font-size="30" fill="#6f6f6f" text-anchor="middle">し<animate attributeName="opacity" calcMode="linear" dur="12s" repeatCount="indefinite" keyTimes="0;0.33999999999999997;0.39;0.96;0.965;1" values="0;0;1;1;0;0"/></text>
<g><animate attributeName="opacity" calcMode="linear" dur="12s" repeatCount="indefinite" keyTimes="0;0.04;0.12;0.96;0.965;1" values="0;0;1;1;0;0"/><text x="40" y="322" font-family="ui-monospace,SFMono-Regular,'SF Mono',Consolas,'Liberation Mono',Menlo,monospace" font-size="12" letter-spacing="1" fill="#6f6f6f">LAURENCE B. DAVID &#183; TARLAC CITY, PH</text><text x="960" y="322" text-anchor="end" font-family="ui-monospace,SFMono-Regular,'SF Mono',Consolas,'Liberation Mono',Menlo,monospace" font-size="12" letter-spacing="1" fill="#f4f4f4">github.com/LaurenceBDavid</text></g>
</svg>
